<svg xmlns="http://www.w3.org/2000/svg" width="1536" height="1872" viewBox="0 0 1536 1872" shape-rendering="crispEdges">
  <title>skfiy Cloudbot Atlas</title>
  <defs>
    <g id="shell">
      <rect x="56" y="46" width="82" height="62" rx="18" fill="#8bdcff"/>
      <rect x="44" y="60" width="32" height="48" rx="14" fill="#7acbff"/>
      <rect x="118" y="58" width="34" height="50" rx="15" fill="#6dbdff"/>
      <rect x="72" y="34" width="52" height="30" rx="15" fill="#b6efff"/>
      <rect x="58" y="96" width="80" height="10" fill="#4684d8"/>
      <rect x="62" y="68" width="68" height="34" rx="8" fill="#111a2f"/>
      <rect x="66" y="72" width="60" height="26" rx="5" fill="#17243d"/>
      <rect x="72" y="116" width="48" height="34" rx="10" fill="#d9f7ff"/>
      <rect x="76" y="145" width="40" height="7" fill="#7bc8ff"/>
      <rect x="50" y="118" width="18" height="26" rx="8" fill="#7bc8ff"/>
      <rect x="124" y="118" width="18" height="26" rx="8" fill="#5eaff5"/>
      <rect x="76" y="154" width="14" height="18" rx="5" fill="#4381d5"/>
      <rect x="102" y="154" width="14" height="18" rx="5" fill="#4381d5"/>
      <rect x="52" y="54" width="10" height="10" fill="#dffbff"/>
      <rect x="118" y="42" width="12" height="8" fill="#e8fdff"/>
    </g>
    <g id="eyes-idle">
      <rect x="79" y="82" width="9" height="9" fill="#74f7ff"/>
      <rect x="104" y="82" width="9" height="9" fill="#74f7ff"/>
    </g>
    <g id="eyes-blink">
      <rect x="78" y="86" width="11" height="3" fill="#74f7ff"/>
      <rect x="103" y="86" width="11" height="3" fill="#74f7ff"/>
    </g>
    <g id="eyes-run">
      <rect x="78" y="80" width="6" height="6" fill="#74f7ff"/>
      <rect x="88" y="84" width="6" height="6" fill="#74f7ff"/>
      <rect x="106" y="80" width="6" height="6" fill="#74f7ff"/>
      <rect x="116" y="84" width="6" height="6" fill="#74f7ff"/>
      <rect x="84" y="92" width="26" height="3" fill="#4fdcff"/>
    </g>
    <g id="eyes-review">
      <rect x="75" y="80" width="12" height="5" fill="#a7fffb"/>
      <rect x="100" y="84" width="12" height="5" fill="#a7fffb"/>
      <rect x="72" y="94" width="48" height="2" fill="#4fdcff"/>
    </g>
    <g id="eyes-wait">
      <rect x="80" y="78" width="8" height="8" fill="#f8e78c"/>
      <rect x="105" y="78" width="8" height="8" fill="#f8e78c"/>
      <rect x="88" y="93" width="18" height="3" fill="#f8e78c"/>
    </g>
    <g id="eyes-happy">
      <rect x="78" y="80" width="12" height="4" fill="#9fffee"/>
      <rect x="102" y="80" width="12" height="4" fill="#9fffee"/>
      <rect x="87" y="92" width="20" height="4" fill="#9fffee"/>
    </g>
    <g id="eyes-failed">
      <rect x="78" y="78" width="4" height="4" fill="#ff8aa1"/>
      <rect x="82" y="82" width="4" height="4" fill="#ff8aa1"/>
      <rect x="86" y="86" width="4" height="4" fill="#ff8aa1"/>
      <rect x="106" y="78" width="4" height="4" fill="#ff8aa1"/>
      <rect x="102" y="82" width="4" height="4" fill="#ff8aa1"/>
      <rect x="98" y="86" width="4" height="4" fill="#ff8aa1"/>
      <rect x="88" y="94" width="18" height="3" fill="#ff8aa1"/>
    </g>
    <g id="spark">
      <rect x="142" y="42" width="5" height="5" fill="#f8e78c"/>
      <rect x="137" y="47" width="15" height="5" fill="#f8e78c"/>
      <rect x="142" y="52" width="5" height="5" fill="#f8e78c"/>
    </g>
    <g id="pose-idle-a">
      <use href="#shell"/>
      <use href="#eyes-idle"/>
    </g>
    <g id="pose-idle-b">
      <g transform="translate(0 -3)">
        <use href="#shell"/>
        <use href="#eyes-idle"/>
      </g>
    </g>
    <g id="pose-idle-c">
      <use href="#shell"/>
      <use href="#eyes-blink"/>
    </g>
    <g id="pose-run-a">
      <g transform="translate(0 -4)">
        <use href="#shell"/>
        <use href="#eyes-run"/>
        <rect x="48" y="130" width="18" height="10" rx="4" fill="#b6efff"/>
        <rect x="126" y="111" width="20" height="10" rx="4" fill="#b6efff"/>
      </g>
    </g>
    <g id="pose-run-b">
      <g transform="translate(0 2)">
        <use href="#shell"/>
        <use href="#eyes-run"/>
        <rect x="50" y="111" width="18" height="10" rx="4" fill="#b6efff"/>
        <rect x="124" y="132" width="20" height="10" rx="4" fill="#b6efff"/>
      </g>
    </g>
    <g id="pose-review-a">
      <g transform="translate(-3 0)">
        <use href="#shell"/>
        <use href="#eyes-review"/>
      </g>
    </g>
    <g id="pose-review-b">
      <g transform="translate(3 -2)">
        <use href="#shell"/>
        <use href="#eyes-review"/>
      </g>
    </g>
    <g id="pose-wait-a">
      <use href="#shell"/>
      <use href="#eyes-wait"/>
    </g>
    <g id="pose-wait-b">
      <g transform="translate(0 3)">
        <use href="#shell"/>
        <use href="#eyes-wait"/>
      </g>
    </g>
    <g id="pose-wave-a">
      <use href="#shell"/>
      <use href="#eyes-happy"/>
      <rect x="130" y="102" width="12" height="34" rx="6" fill="#b6efff"/>
    </g>
    <g id="pose-wave-b">
      <g transform="translate(0 -5)">
        <use href="#shell"/>
        <use href="#eyes-happy"/>
        <rect x="136" y="86" width="12" height="42" rx="6" fill="#b6efff"/>
        <use href="#spark"/>
      </g>
    </g>
    <g id="pose-jump-a">
      <g transform="translate(0 -12)">
        <use href="#shell"/>
        <use href="#eyes-happy"/>
      </g>
    </g>
    <g id="pose-failed-a">
      <g transform="translate(-3 3)">
        <use href="#shell"/>
        <use href="#eyes-failed"/>
      </g>
    </g>
    <g id="pose-failed-b">
      <g transform="translate(3 1)">
        <use href="#shell"/>
        <use href="#eyes-failed"/>
      </g>
    </g>
  </defs>
  <use href="#pose-idle-a" x="0" y="0"/>
  <use href="#pose-idle-b" x="192" y="0"/>
  <use href="#pose-idle-a" x="384" y="0"/>
  <use href="#pose-idle-c" x="576" y="0"/>
  <use href="#pose-idle-a" x="768" y="0"/>
  <use href="#pose-idle-b" x="960" y="0"/>
  <use href="#pose-idle-a" x="1152" y="0"/>
  <use href="#pose-idle-a" x="1344" y="0"/>
  <use href="#pose-run-a" x="0" y="208"/>
  <use href="#pose-run-b" x="192" y="208"/>
  <use href="#pose-run-a" x="384" y="208"/>
  <use href="#pose-run-b" x="576" y="208"/>
  <use href="#pose-run-a" x="768" y="208"/>
  <use href="#pose-run-b" x="960" y="208"/>
  <use href="#pose-run-a" x="1152" y="208"/>
  <use href="#pose-run-b" x="1344" y="208"/>
  <g transform="translate(192 416) scale(-1 1)"><use href="#pose-run-a"/></g>
  <g transform="translate(384 416) scale(-1 1)"><use href="#pose-run-b"/></g>
  <g transform="translate(576 416) scale(-1 1)"><use href="#pose-run-a"/></g>
  <g transform="translate(768 416) scale(-1 1)"><use href="#pose-run-b"/></g>
  <g transform="translate(960 416) scale(-1 1)"><use href="#pose-run-a"/></g>
  <g transform="translate(1152 416) scale(-1 1)"><use href="#pose-run-b"/></g>
  <g transform="translate(1344 416) scale(-1 1)"><use href="#pose-run-a"/></g>
  <g transform="translate(1536 416) scale(-1 1)"><use href="#pose-run-b"/></g>
  <use href="#pose-wave-a" x="0" y="624"/>
  <use href="#pose-wave-b" x="192" y="624"/>
  <use href="#pose-wave-a" x="384" y="624"/>
  <use href="#pose-wave-b" x="576" y="624"/>
  <use href="#pose-wave-a" x="768" y="624"/>
  <use href="#pose-wave-b" x="960" y="624"/>
  <use href="#pose-wave-a" x="1152" y="624"/>
  <use href="#pose-wave-a" x="1344" y="624"/>
  <use href="#pose-jump-a" x="0" y="832"/>
  <use href="#pose-jump-a" x="192" y="832"/>
  <use href="#pose-idle-b" x="384" y="832"/>
  <use href="#pose-jump-a" x="576" y="832"/>
  <use href="#pose-idle-b" x="768" y="832"/>
  <use href="#pose-idle-a" x="960" y="832"/>
  <use href="#pose-idle-a" x="1152" y="832"/>
  <use href="#pose-idle-a" x="1344" y="832"/>
  <use href="#pose-failed-a" x="0" y="1040"/>
  <use href="#pose-failed-b" x="192" y="1040"/>
  <use href="#pose-failed-a" x="384" y="1040"/>
  <use href="#pose-failed-b" x="576" y="1040"/>
  <use href="#pose-failed-a" x="768" y="1040"/>
  <use href="#pose-failed-a" x="960" y="1040"/>
  <use href="#pose-failed-a" x="1152" y="1040"/>
  <use href="#pose-failed-a" x="1344" y="1040"/>
  <use href="#pose-wait-a" x="0" y="1248"/>
  <use href="#pose-wait-b" x="192" y="1248"/>
  <use href="#pose-wait-a" x="384" y="1248"/>
  <use href="#pose-wait-b" x="576" y="1248"/>
  <use href="#pose-wait-a" x="768" y="1248"/>
  <use href="#pose-wait-b" x="960" y="1248"/>
  <use href="#pose-wait-a" x="1152" y="1248"/>
  <use href="#pose-wait-a" x="1344" y="1248"/>
  <use href="#pose-run-a" x="0" y="1456"/>
  <use href="#pose-run-b" x="192" y="1456"/>
  <use href="#pose-run-a" x="384" y="1456"/>
  <use href="#pose-run-b" x="576" y="1456"/>
  <use href="#pose-run-a" x="768" y="1456"/>
  <use href="#pose-run-b" x="960" y="1456"/>
  <use href="#pose-run-a" x="1152" y="1456"/>
  <use href="#pose-run-b" x="1344" y="1456"/>
  <use href="#pose-review-a" x="0" y="1664"/>
  <use href="#pose-review-b" x="192" y="1664"/>
  <use href="#pose-review-a" x="384" y="1664"/>
  <use href="#pose-review-b" x="576" y="1664"/>
  <use href="#pose-review-a" x="768" y="1664"/>
  <use href="#pose-review-b" x="960" y="1664"/>
  <use href="#pose-review-a" x="1152" y="1664"/>
  <use href="#pose-review-a" x="1344" y="1664"/>
</svg>
